<svg width="38" height="32" viewBox="0 0 38 32" fill="none" xmlns="http://www.w3.org/2000/svg">
<path d="M5.67607 17.3323C5.67607 16.979 5.81644 16.6401 6.06631 16.3902C6.31617 16.1404 6.65506 16 7.00842 16H9.67312C10.0265 16 10.3654 16.1404 10.6152 16.3902C10.8651 16.6401 11.0055 16.979 11.0055 17.3323C11.0055 17.6857 10.8651 18.0246 10.6152 18.2745C10.3654 18.5243 10.0265 18.6647 9.67312 18.6647H7.00842C6.65506 18.6647 6.31617 18.5243 6.06631 18.2745C5.81644 18.0246 5.67607 17.6857 5.67607 17.3323ZM33.309 29.7598C33.4291 29.8889 33.5224 30.0405 33.5835 30.2059C33.6446 30.3712 33.6723 30.5471 33.665 30.7233C33.6576 30.8994 33.6154 31.0724 33.5407 31.2321C33.466 31.3918 33.3603 31.5351 33.2298 31.6537C33.0994 31.7722 32.9467 31.8637 32.7805 31.9229C32.6144 31.982 32.4383 32.0075 32.2622 31.9981C32.0861 31.9886 31.9137 31.9443 31.7549 31.8677C31.5961 31.7911 31.4541 31.6837 31.3371 31.5518L29.3119 29.3235H3.01138C2.30465 29.3235 1.62688 29.0427 1.12715 28.543C0.627424 28.0433 0.34668 27.3655 0.34668 26.6588V5.34121C0.34668 4.63449 0.627424 3.95672 1.12715 3.45699C1.62688 2.95726 2.30465 2.67652 3.01138 2.67652H5.08651L4.69014 2.24017C4.57 2.11113 4.47668 1.95952 4.41557 1.79414C4.35446 1.62875 4.32678 1.45289 4.33414 1.27673C4.3415 1.10057 4.38375 0.927629 4.45844 0.767921C4.53313 0.608213 4.63878 0.464917 4.76926 0.34634C4.89974 0.227762 5.05246 0.136261 5.21856 0.0771396C5.38466 0.0180182 5.56085 -0.00754751 5.7369 0.00192396C5.91296 0.0113954 6.08538 0.055716 6.24419 0.132317C6.40299 0.208917 6.545 0.316274 6.66201 0.448166L33.309 29.7598ZM26.8887 26.6588L24.4655 23.9941H7.00842C6.65506 23.9941 6.31617 23.8537 6.06631 23.6039C5.81644 23.354 5.67607 23.0151 5.67607 22.6617C5.67607 22.3084 5.81644 21.9695 6.06631 21.7196C6.31617 21.4698 6.65506 21.3294 7.00842 21.3294H22.044L19.6208 18.6647H15.0025C14.6491 18.6647 14.3103 18.5243 14.0604 18.2745C13.8105 18.0246 13.6702 17.6857 13.6702 17.3323C13.6702 16.979 13.8105 16.6401 14.0604 16.3902C14.3103 16.1404 14.6491 16 15.0025 16H17.1992L7.50805 5.34121H3.01138V26.6588H26.8887ZM30.9907 18.6647C31.344 18.6647 31.6829 18.5243 31.9328 18.2745C32.1827 18.0246 32.323 17.6857 32.323 17.3323C32.323 16.979 32.1827 16.6401 31.9328 16.3902C31.6829 16.1404 31.344 16 30.9907 16H27.4133C27.06 16 26.7211 16.1404 26.4712 16.3902C26.2214 16.6401 26.081 16.979 26.081 17.3323C26.081 17.6857 26.2214 18.0246 26.4712 18.2745C26.7211 18.5243 27.06 18.6647 27.4133 18.6647H30.9907ZM34.9877 2.67652H15.3006C14.9473 2.67652 14.6084 2.81689 14.3585 3.06675C14.1086 3.31662 13.9683 3.65551 13.9683 4.00887C13.9683 4.36223 14.1086 4.70112 14.3585 4.95098C14.6084 5.20084 14.9473 5.34121 15.3006 5.34121H34.9877V27.1301C34.9877 27.4835 35.1281 27.8224 35.378 28.0722C35.6278 28.3221 35.9667 28.4625 36.3201 28.4625C36.6734 28.4625 37.0123 28.3221 37.2622 28.0722C37.5121 27.8224 37.6524 27.4835 37.6524 27.1301V5.34121C37.6524 4.63449 37.3717 3.95672 36.872 3.45699C36.3722 2.95726 35.6945 2.67652 34.9877 2.67652Z" fill="#787878"/>
</svg>
